<svg xmlns="http://www.w3.org/2000/svg" xmlns:xlink="http://www.w3.org/1999/xlink" viewBox="0 0 453.47 400.98"><defs><style>.cls-1,.cls-4{stroke:#016a37;}.cls-1,.cls-2,.cls-3,.cls-4{stroke-miterlimit:10;}.cls-1,.cls-2{stroke-width:10px;}.cls-1{fill:url(#linear-gradient);}.cls-2,.cls-3{stroke:#006937;}.cls-2{fill:url(#linear-gradient-2);}.cls-3,.cls-4{stroke-width:4px;}.cls-3{fill:url(#linear-gradient-3);}.cls-4{fill:url(#linear-gradient-4);}.cls-5,.cls-9{font-size:30px;}.cls-10,.cls-5{fill:#2b4e99;}.cls-5,.cls-7,.cls-9{font-family:ArialRoundedMTBold, Arial Rounded MT Bold;}.cls-6{letter-spacing:-0.01em;}.cls-7{font-size:27.89px;letter-spacing:-0.02em;}.cls-7,.cls-9{fill:#fff;}.cls-8{letter-spacing:-0.03em;}</style><linearGradient id="linear-gradient" x1="245.35" y1="202.95" x2="441.96" y2="202.95" gradientUnits="userSpaceOnUse"><stop offset="0.02" stop-color="#687fb2"/><stop offset="0.59" stop-color="#b0c3e4"/><stop offset="0.77" stop-color="#d9e2f2"/><stop offset="0.91" stop-color="#f5f7fc"/><stop offset="1" stop-color="#fff"/></linearGradient><linearGradient id="linear-gradient-2" x1="44.87" y1="198.03" x2="241.48" y2="198.03" xlink:href="#linear-gradient"/><linearGradient id="linear-gradient-3" x1="-753.21" y1="10099.2" x2="-628.84" y2="10204.48" gradientTransform="matrix(-0.73, 0.69, 0.69, 0.73, -7223.8, -6814)" xlink:href="#linear-gradient"/><linearGradient id="linear-gradient-4" x1="-1021.86" y1="-2753.97" x2="-858.91" y2="-2753.97" gradientTransform="matrix(0.73, -0.69, -0.69, -0.73, -967.13, -2330.8)" xlink:href="#linear-gradient"/></defs><g id="Layer_2" data-name="Layer 2"><g id="Layer_1-2" data-name="Layer 1"><path class="cls-1" d="M301.3,258.84c-15.76-16.7-56-59.16-56-59.16l59.28-56a81.43,81.43,0,1,1-3.33,115.11Z" transform="translate(-39.87)"/><path class="cls-2" d="M185.52,142.14c15.76,16.7,56,59.16,56,59.16l-59.29,55.95a81.43,81.43,0,1,1,3.33-115.11Z" transform="translate(-39.87)"/><path class="cls-3" d="M188.51,139.32c15.76,16.7,55.82,59.29,55.82,59.29l59.29-56a81.43,81.43,0,1,0-115.11-3.34Z" transform="translate(-39.87)"/><path class="cls-4" d="M298.32,261.66c-15.76-16.7-55.83-59.28-55.83-59.28L183.2,258.33a81.43,81.43,0,1,0,115.12,3.33Z" transform="translate(-39.87)"/><text class="cls-5" x="-39.87"><tspan x="239.14" y="196.87">Pu</tspan><tspan class="cls-6" x="277.27" y="196.87">b</tspan><tspan x="295.63" y="196.87">lishing</tspan><tspan x="259.43" y="232.87">A</tspan><tspan class="cls-6" x="281.01" y="232.87">d</tspan><tspan x="299.36" y="232.87">viser</tspan></text><text class="cls-7" x="-39.87"><tspan x="139.04" y="73.91">Man</tspan><tspan class="cls-8" x="194.02" y="73.91">a</tspan><tspan x="209.67" y="73.91">ging </tspan><tspan x="163.29" y="107.38">Editor</tspan></text><text class="cls-9" x="-39.87"><tspan x="132.1" y="311.34">Man</tspan><tspan class="cls-6" x="193.03" y="311.34">a</tspan><tspan x="210.47" y="311.34">ging </tspan><tspan x="158.77" y="347.34">Editor</tspan></text><path class="cls-10" d="M83.82,180.73V192a21.8,21.8,0,0,1-.12,2.49,7.86,7.86,0,0,1-.56,2.08,5.65,5.65,0,0,1-2.42,2.76,8,8,0,0,1-4.1,1,8.47,8.47,0,0,1-3.64-.69,5.29,5.29,0,0,1-2.35-2.22,8.12,8.12,0,0,1-.77-1.89,8,8,0,0,1-.29-2,1.92,1.92,0,0,1,2-2.11,1.65,1.65,0,0,1,1.3.5,3.45,3.45,0,0,1,.67,1.55,16.25,16.25,0,0,0,.5,1.8,2.73,2.73,0,0,0,.84,1.16,2.56,2.56,0,0,0,1.67.48q2.88,0,2.88-4.23V180.73a3,3,0,0,1,.58-2,2,2,0,0,1,1.58-.66,2,2,0,0,1,1.6.66A2.86,2.86,0,0,1,83.82,180.73Z" transform="translate(-39.87)"/><path class="cls-10" d="M103.23,192.17a9.52,9.52,0,0,1-.55,3.3,7.46,7.46,0,0,1-1.61,2.59,7.19,7.19,0,0,1-2.52,1.66,8.86,8.86,0,0,1-3.3.58,8.51,8.51,0,0,1-3.27-.59,7.17,7.17,0,0,1-4.12-4.25,9.35,9.35,0,0,1-.55-3.29,9.52,9.52,0,0,1,.56-3.32,7.2,7.2,0,0,1,1.59-2.58A7.12,7.12,0,0,1,92,184.62a9.52,9.52,0,0,1,6.57,0,7.07,7.07,0,0,1,2.53,1.67,7.16,7.16,0,0,1,1.6,2.57A9.44,9.44,0,0,1,103.23,192.17Zm-4,0a6,6,0,0,0-1.08-3.81A3.48,3.48,0,0,0,95.25,187a3.58,3.58,0,0,0-2.07.61,3.83,3.83,0,0,0-1.37,1.79,7.37,7.37,0,0,0-.49,2.77,7.17,7.17,0,0,0,.48,2.74,3.91,3.91,0,0,0,1.36,1.79,3.75,3.75,0,0,0,5-.74A6,6,0,0,0,99.22,192.17Z" transform="translate(-39.87)"/><path class="cls-10" d="M116.77,198v-.51a8.77,8.77,0,0,1-1.51,1.53,5.52,5.52,0,0,1-1.73.91,7,7,0,0,1-2.14.3,5.57,5.57,0,0,1-2.6-.6A4.44,4.44,0,0,1,107,198a7.32,7.32,0,0,1-.74-3.67v-7.92a2.62,2.62,0,0,1,.54-1.8,1.86,1.86,0,0,1,1.43-.59,1.91,1.91,0,0,1,1.47.6,2.56,2.56,0,0,1,.55,1.79v6.4a9.68,9.68,0,0,0,.24,2.34,2.81,2.81,0,0,0,.84,1.48,2.46,2.46,0,0,0,1.65.53,3.34,3.34,0,0,0,1.9-.6A3.51,3.51,0,0,0,116.2,195a12.79,12.79,0,0,0,.33-3.72v-4.86a2.56,2.56,0,0,1,.56-1.79,2.05,2.05,0,0,1,2.89,0,2.62,2.62,0,0,1,.54,1.8V198a2.5,2.5,0,0,1-.52,1.71,1.75,1.75,0,0,1-1.34.57,1.77,1.77,0,0,1-1.36-.59A2.44,2.44,0,0,1,116.77,198Z" transform="translate(-39.87)"/><path class="cls-10" d="M128.47,194.53v3.34a2.56,2.56,0,0,1-.57,1.82,1.88,1.88,0,0,1-1.45.61,1.82,1.82,0,0,1-1.42-.61,2.64,2.64,0,0,1-.56-1.82V186.74q0-2.7,2-2.7a1.64,1.64,0,0,1,1.44.63,3.51,3.51,0,0,1,.48,1.86,7.09,7.09,0,0,1,1.47-1.86,3.07,3.07,0,0,1,2-.63,5.13,5.13,0,0,1,2.44.63,1.89,1.89,0,0,1,1.19,1.67,1.59,1.59,0,0,1-.51,1.21,1.55,1.55,0,0,1-1.09.48,4.75,4.75,0,0,1-1.06-.28,5,5,0,0,0-1.49-.27,2.21,2.21,0,0,0-1.43.46,3.06,3.06,0,0,0-.87,1.37,10.06,10.06,0,0,0-.42,2.17C128.51,192.31,128.47,193.33,128.47,194.53Z" transform="translate(-39.87)"/><path class="cls-10" d="M141.28,186.25v.49a7.06,7.06,0,0,1,2.3-2.05,6.23,6.23,0,0,1,2.88-.65,5.73,5.73,0,0,1,2.83.69,4.38,4.38,0,0,1,1.86,2,4.73,4.73,0,0,1,.51,1.58,16.07,16.07,0,0,1,.12,2.17v7.44a2.69,2.69,0,0,1-.55,1.82,2,2,0,0,1-2.88,0,2.64,2.64,0,0,1-.56-1.8V191.2a6.62,6.62,0,0,0-.55-3,2.22,2.22,0,0,0-2.19-1.05,3.18,3.18,0,0,0-1.94.64,3.6,3.6,0,0,0-1.29,1.75,12.27,12.27,0,0,0-.3,3.34v5a2.56,2.56,0,0,1-.56,1.82,1.89,1.89,0,0,1-1.46.61,1.82,1.82,0,0,1-1.42-.63,2.64,2.64,0,0,1-.55-1.8V186.31a2.55,2.55,0,0,1,.49-1.71,1.75,1.75,0,0,1,1.37-.56,1.82,1.82,0,0,1,1,.25,1.78,1.78,0,0,1,.68.75A2.61,2.61,0,0,1,141.28,186.25Z" transform="translate(-39.87)"/><path class="cls-10" d="M165.87,198a12.24,12.24,0,0,1-2.81,1.7,7.9,7.9,0,0,1-3,.56,5.73,5.73,0,0,1-2.71-.61,4.4,4.4,0,0,1-1.79-1.65,4.25,4.25,0,0,1-.63-2.25,4,4,0,0,1,1-2.8,5.16,5.16,0,0,1,2.85-1.55l1.89-.4c1-.2,1.87-.39,2.59-.56s1.5-.38,2.34-.62a4.26,4.26,0,0,0-.64-2.33,2.88,2.88,0,0,0-2.34-.74,4.9,4.9,0,0,0-2.29.43,3.79,3.79,0,0,0-1.32,1.27,12.11,12.11,0,0,1-.77,1.12,1.26,1.26,0,0,1-1,.28,1.68,1.68,0,0,1-1.16-.44,1.37,1.37,0,0,1-.49-1.1,3.34,3.34,0,0,1,.74-2,5.34,5.34,0,0,1,2.33-1.64,10.51,10.51,0,0,1,3.94-.65,11.3,11.3,0,0,1,4.15.62,3.93,3.93,0,0,1,2.13,2,8.72,8.72,0,0,1,.62,3.58c0,.94,0,1.73,0,2.39s0,1.38,0,2.18a8.05,8.05,0,0,0,.38,2.35,7.36,7.36,0,0,1,.37,1.57,1.48,1.48,0,0,1-.58,1.13,2,2,0,0,1-1.31.5,1.76,1.76,0,0,1-1.22-.58A8.27,8.27,0,0,1,165.87,198Zm-.26-5.78a21.39,21.39,0,0,1-2.56.68c-1.12.24-1.89.42-2.32.53a3.09,3.09,0,0,0-1.23.66,1.68,1.68,0,0,0-.59,1.37,2,2,0,0,0,.69,1.54,2.53,2.53,0,0,0,1.8.64,4.65,4.65,0,0,0,2.19-.52,3.44,3.44,0,0,0,1.47-1.34,6,6,0,0,0,.55-3Z" transform="translate(-39.87)"/><path class="cls-10" d="M173.59,197.87V180.53a2.73,2.73,0,0,1,.53-1.82,1.83,1.83,0,0,1,1.45-.62,1.91,1.91,0,0,1,1.46.61,2.64,2.64,0,0,1,.56,1.83v17.34a2.56,2.56,0,0,1-.57,1.82,1.87,1.87,0,0,1-1.45.61,1.81,1.81,0,0,1-1.43-.63A2.64,2.64,0,0,1,173.59,197.87Z" transform="translate(-39.87)"/><path class="cls-10" d="M96.44,217.81h-9.8v5.28h9a2.21,2.21,0,0,1,1.49.44,1.69,1.69,0,0,1,0,2.38,2.08,2.08,0,0,1-1.49.46h-9v6.11H96.77a2.26,2.26,0,0,1,1.55.47,1.66,1.66,0,0,1,.52,1.27,1.63,1.63,0,0,1-.52,1.24,2.21,2.21,0,0,1-1.55.47H85a2.27,2.27,0,0,1-2.66-2.66V217.13a3.76,3.76,0,0,1,.27-1.54,1.76,1.76,0,0,1,.88-.86,3.64,3.64,0,0,1,1.51-.27H96.44a2.22,2.22,0,0,1,1.54.46,1.7,1.7,0,0,1,0,2.43A2.22,2.22,0,0,1,96.44,217.81Z" transform="translate(-39.87)"/><path class="cls-10" d="M113,234v-.4a9.46,9.46,0,0,1-1.58,1.5,6,6,0,0,1-1.7.88,6.4,6.4,0,0,1-2,.3,5.81,5.81,0,0,1-2.66-.61,6.16,6.16,0,0,1-2.12-1.73,8,8,0,0,1-1.35-2.65,11.3,11.3,0,0,1-.47-3.3,8.57,8.57,0,0,1,1.84-5.85,6.09,6.09,0,0,1,4.81-2.09,6.55,6.55,0,0,1,2.92.59,8.22,8.22,0,0,1,2.31,1.83v-5.91a3,3,0,0,1,.5-1.86,1.65,1.65,0,0,1,1.39-.63,1.74,1.74,0,0,1,1.4.58,2.58,2.58,0,0,1,.49,1.71V234a2.45,2.45,0,0,1-.52,1.71,1.8,1.8,0,0,1-1.37.57,1.77,1.77,0,0,1-1.35-.59A2.43,2.43,0,0,1,113,234Zm-7.86-5.88a6.93,6.93,0,0,0,.5,2.77,3.84,3.84,0,0,0,1.39,1.72,3.36,3.36,0,0,0,1.92.58,3.49,3.49,0,0,0,1.92-.55,3.78,3.78,0,0,0,1.39-1.68,6.8,6.8,0,0,0,.52-2.84,6.54,6.54,0,0,0-.52-2.74,4,4,0,0,0-1.4-1.76,3.41,3.41,0,0,0-3.91,0,4.08,4.08,0,0,0-1.34,1.79A7.27,7.27,0,0,0,105.11,228.14Z" transform="translate(-39.87)"/><path class="cls-10" d="M122.79,218.18a2.12,2.12,0,0,1-1.43-.51,1.83,1.83,0,0,1-.59-1.45,1.78,1.78,0,0,1,.61-1.4,2,2,0,0,1,1.41-.55,2.13,2.13,0,0,1,1.38.5,1.77,1.77,0,0,1,.6,1.45,1.84,1.84,0,0,1-.59,1.44A2,2,0,0,1,122.79,218.18Zm2,4.13v11.56a2.6,2.6,0,0,1-.57,1.82,1.92,1.92,0,0,1-1.46.61,1.79,1.79,0,0,1-1.42-.63,2.64,2.64,0,0,1-.55-1.8V222.43a2.56,2.56,0,0,1,.55-1.79,1.83,1.83,0,0,1,1.42-.6,2,2,0,0,1,1.46.6A2.33,2.33,0,0,1,124.77,222.31Z" transform="translate(-39.87)"/><path class="cls-10" d="M129.12,220.39h.44V218c0-.64,0-1.15.05-1.52a2.26,2.26,0,0,1,.28-.94,1.82,1.82,0,0,1,.68-.67,1.91,1.91,0,0,1,1-.25,2,2,0,0,1,1.38.57,1.73,1.73,0,0,1,.52.93,8.65,8.65,0,0,1,.11,1.56v2.72H135a1.88,1.88,0,0,1,1.3.41,1.33,1.33,0,0,1,.44,1,1.16,1.16,0,0,1-.63,1.13,4.26,4.26,0,0,1-1.83.32h-.74v7.35a13.22,13.22,0,0,0,.06,1.45,1.54,1.54,0,0,0,.35.82,1.2,1.2,0,0,0,.93.31,4.63,4.63,0,0,0,1-.13,5.1,5.1,0,0,1,.93-.12,1.19,1.19,0,0,1,.87.39,1.3,1.3,0,0,1,.39,1,1.61,1.61,0,0,1-1.05,1.48,7.2,7.2,0,0,1-3,.51,5.28,5.28,0,0,1-2.85-.63,2.93,2.93,0,0,1-1.26-1.74,11.88,11.88,0,0,1-.3-3v-7.67H129a1.91,1.91,0,0,1-1.32-.41,1.36,1.36,0,0,1-.45-1,1.29,1.29,0,0,1,.47-1A2.1,2.1,0,0,1,129.12,220.39Z" transform="translate(-39.87)"/><path class="cls-10" d="M154.49,228.17a9.52,9.52,0,0,1-.56,3.3,7.32,7.32,0,0,1-1.61,2.59,7,7,0,0,1-2.52,1.66,8.82,8.82,0,0,1-3.3.58,8.42,8.42,0,0,1-3.26-.59,7.08,7.08,0,0,1-2.51-1.67,7.34,7.34,0,0,1-1.62-2.58,10.29,10.29,0,0,1,0-6.61,7.08,7.08,0,0,1,1.6-2.58,7,7,0,0,1,2.52-1.65,8.76,8.76,0,0,1,3.26-.58,8.9,8.9,0,0,1,3.3.59,7,7,0,0,1,2.53,1.67,7.19,7.19,0,0,1,1.61,2.57A9.68,9.68,0,0,1,154.49,228.17Zm-4,0a6,6,0,0,0-1.07-3.81,3.78,3.78,0,0,0-5-.75,3.78,3.78,0,0,0-1.38,1.79,8.23,8.23,0,0,0,0,5.51,3.93,3.93,0,0,0,1.37,1.79,3.75,3.75,0,0,0,5-.74A6,6,0,0,0,150.47,228.17Z" transform="translate(-39.87)"/><path class="cls-10" d="M161.61,230.53v3.34a2.56,2.56,0,0,1-.57,1.82,1.9,1.9,0,0,1-1.45.61,1.85,1.85,0,0,1-1.43-.61,2.64,2.64,0,0,1-.55-1.82V222.74q0-2.7,1.95-2.7a1.62,1.62,0,0,1,1.43.63,3.5,3.5,0,0,1,.49,1.86,6.7,6.7,0,0,1,1.47-1.86,3,3,0,0,1,2-.63,5.17,5.17,0,0,1,2.45.63,1.88,1.88,0,0,1,1.18,1.67A1.68,1.68,0,0,1,167,224a4.62,4.62,0,0,1-1.06-.28,5,5,0,0,0-1.49-.27,2.22,2.22,0,0,0-1.44.46,3,3,0,0,0-.86,1.37,9.46,9.46,0,0,0-.43,2.17C161.65,228.31,161.61,229.33,161.61,230.53Z" transform="translate(-39.87)"/></g></g></svg>