<svg xmlns="http://www.w3.org/2000/svg" xmlns:xlink="http://www.w3.org/1999/xlink" viewBox="0 0 453.28 406"><defs><style>.cls-1,.cls-2,.cls-3,.cls-4{stroke:#2b4e99;stroke-miterlimit:10;stroke-width:9px;}.cls-1{fill:url(#linear-gradient);}.cls-2{fill:url(#linear-gradient-2);}.cls-3{fill:url(#linear-gradient-3);}.cls-4{fill:url(#linear-gradient-4);}.cls-5,.cls-8{font-size:30px;font-family:ArialRoundedMTBold, Arial Rounded MT Bold;}.cls-5{fill:#fff;}.cls-6{letter-spacing:-0.01em;}.cls-7,.cls-8{fill:#2b4e99;}</style><linearGradient id="linear-gradient" x1="341.44" y1="-601.84" x2="537.58" y2="-601.84" gradientTransform="matrix(0, -1, -1, 0, -269.46, 742.94)" gradientUnits="userSpaceOnUse"><stop offset="0.02" stop-color="#687fb3"/><stop offset="0.59" stop-color="#adc7ff"/><stop offset="0.59" stop-color="#adc7ff"/><stop offset="0.77" stop-color="#d9e5ff"/><stop offset="0.92" stop-color="#f5f8ff"/><stop offset="1" stop-color="#fff"/></linearGradient><linearGradient id="linear-gradient-2" x1="1511.57" y1="-601.84" x2="1707.71" y2="-601.84" gradientTransform="translate(-269.46 -1507.07) rotate(90)" xlink:href="#linear-gradient"/><linearGradient id="linear-gradient-3" x1="341.44" y1="689.82" x2="537.58" y2="689.82" gradientTransform="translate(-555.25 742.94) rotate(-90)" xlink:href="#linear-gradient"/><linearGradient id="linear-gradient-4" x1="1511.57" y1="689.82" x2="1707.71" y2="689.82" gradientTransform="matrix(0, 1, 1, 0, -555.25, -1507.07)" xlink:href="#linear-gradient"/></defs><g id="Layer_2" data-name="Layer 2"><g id="Layer_1-2" data-name="Layer 1"><path class="cls-1" d="M332.38,205.47c-27.64,0-98-.11-98-.11v98.13a98,98,0,1,0,98-98Z"/><path class="cls-2" d="M332.38,200.53c-27.64,0-98,.11-98,.11V102.52a98,98,0,1,1,98,98Z"/><path class="cls-3" d="M134.57,205.47c27.64,0,98-.11,98-.11v98.13a98,98,0,1,1-98-98Z"/><path class="cls-4" d="M134.57,200.53c27.64,0,98,.11,98,.11V102.51a98,98,0,1,0-98,98Z"/><text class="cls-5"><tspan x="57.44" y="99.46">Man</tspan><tspan class="cls-6" x="118.38" y="99.46">a</tspan><tspan x="135.81" y="99.46">ging </tspan><tspan x="84.12" y="135.46">Editor</tspan></text><path class="cls-7" d="M278.45,80.25V91.5a22.11,22.11,0,0,1-.12,2.5,8,8,0,0,1-.57,2.08,5.63,5.63,0,0,1-2.41,2.76,8,8,0,0,1-4.11,1,8.53,8.53,0,0,1-3.64-.69,5.36,5.36,0,0,1-2.35-2.23,8.57,8.57,0,0,1-.76-1.89,7.9,7.9,0,0,1-.29-2,1.92,1.92,0,0,1,2-2.1,1.65,1.65,0,0,1,1.31.49,3.5,3.5,0,0,1,.67,1.56,14.31,14.31,0,0,0,.5,1.8,2.68,2.68,0,0,0,.83,1.15,2.54,2.54,0,0,0,1.67.49q2.9,0,2.89-4.24V80.25a2.9,2.9,0,0,1,.58-2,2,2,0,0,1,1.57-.66,2.06,2.06,0,0,1,1.61.66A2.9,2.9,0,0,1,278.45,80.25Z"/><path class="cls-7" d="M297.86,91.7A9.43,9.43,0,0,1,297.3,95a7.13,7.13,0,0,1-4.13,4.26,9,9,0,0,1-3.29.58,8.7,8.7,0,0,1-3.27-.59,7.2,7.2,0,0,1-2.51-1.68A7.09,7.09,0,0,1,282.49,95a9.29,9.29,0,0,1-.55-3.28,9.57,9.57,0,0,1,.55-3.33,7.36,7.36,0,0,1,1.6-2.58,7.08,7.08,0,0,1,2.52-1.65,9.05,9.05,0,0,1,3.27-.57,8.84,8.84,0,0,1,3.29.58,7.05,7.05,0,0,1,4.14,4.25A9.4,9.4,0,0,1,297.86,91.7Zm-4,0a6,6,0,0,0-1.08-3.81,3.5,3.5,0,0,0-2.89-1.37,3.65,3.65,0,0,0-2.07.61,4,4,0,0,0-1.38,1.8A7.33,7.33,0,0,0,286,91.7a7.16,7.16,0,0,0,.48,2.73,3.88,3.88,0,0,0,1.36,1.8,3.58,3.58,0,0,0,2.09.62,3.47,3.47,0,0,0,2.89-1.37A5.94,5.94,0,0,0,293.85,91.7Z"/><path class="cls-7" d="M311.4,97.57v-.51a9.45,9.45,0,0,1-1.51,1.52,5.66,5.66,0,0,1-1.73.92,7,7,0,0,1-2.14.3,5.54,5.54,0,0,1-2.6-.6,4.46,4.46,0,0,1-1.78-1.66,7.3,7.3,0,0,1-.75-3.66V86a2.57,2.57,0,0,1,.54-1.79,1.85,1.85,0,0,1,1.44-.59,1.89,1.89,0,0,1,1.46.6,2.49,2.49,0,0,1,.56,1.78v6.4a9.68,9.68,0,0,0,.24,2.34,2.75,2.75,0,0,0,.84,1.48,2.38,2.38,0,0,0,1.65.54,3.37,3.37,0,0,0,1.9-.61,3.45,3.45,0,0,0,1.3-1.56,12.41,12.41,0,0,0,.34-3.72V86a2.53,2.53,0,0,1,.56-1.78,1.88,1.88,0,0,1,1.45-.6,1.83,1.83,0,0,1,1.43.59,2.57,2.57,0,0,1,.55,1.79V97.54a2.5,2.5,0,0,1-.52,1.71,1.84,1.84,0,0,1-2.7,0A2.37,2.37,0,0,1,311.4,97.57Z"/><path class="cls-7" d="M323.1,94.05v3.34a2.61,2.61,0,0,1-.57,1.83,1.93,1.93,0,0,1-1.45.61,1.83,1.83,0,0,1-1.42-.62,2.64,2.64,0,0,1-.56-1.82V86.26c0-1.8.65-2.69,1.95-2.69a1.62,1.62,0,0,1,1.43.63,3.42,3.42,0,0,1,.49,1.86,7.09,7.09,0,0,1,1.47-1.86,3,3,0,0,1,2-.63,5.17,5.17,0,0,1,2.45.63,1.88,1.88,0,0,1,1.19,1.67,1.69,1.69,0,0,1-1.6,1.68,5,5,0,0,1-1.06-.27,5,5,0,0,0-1.49-.27,2.15,2.15,0,0,0-1.43.46,2.93,2.93,0,0,0-.87,1.37,9.29,9.29,0,0,0-.42,2.16C323.14,91.83,323.1,92.85,323.1,94.05Z"/><path class="cls-7" d="M335.9,85.78v.48a6.93,6.93,0,0,1,2.31-2,6.06,6.06,0,0,1,2.88-.65,5.78,5.78,0,0,1,2.83.68,4.44,4.44,0,0,1,1.86,2,4.8,4.8,0,0,1,.51,1.58,16.07,16.07,0,0,1,.12,2.17v7.44a2.69,2.69,0,0,1-.55,1.82,2,2,0,0,1-2.88,0,2.67,2.67,0,0,1-.56-1.81V90.73a6.63,6.63,0,0,0-.55-3,2.24,2.24,0,0,0-2.19-1,3.29,3.29,0,0,0-1.95.63A3.78,3.78,0,0,0,336.44,89a12.83,12.83,0,0,0-.29,3.34v5a2.65,2.65,0,0,1-.56,1.83,1.92,1.92,0,0,1-1.46.61,1.8,1.8,0,0,1-1.42-.63,2.67,2.67,0,0,1-.56-1.81V85.84a2.53,2.53,0,0,1,.5-1.71,1.71,1.71,0,0,1,1.36-.56,1.89,1.89,0,0,1,.95.24,1.8,1.8,0,0,1,.69.75A2.65,2.65,0,0,1,335.9,85.78Z"/><path class="cls-7" d="M360.5,97.57a12.39,12.39,0,0,1-2.81,1.69,7.73,7.73,0,0,1-3,.57,5.84,5.84,0,0,1-2.7-.61,4.41,4.41,0,0,1-1.79-1.65,4.28,4.28,0,0,1-.63-2.26,4,4,0,0,1,1-2.79A5.17,5.17,0,0,1,353.42,91l1.89-.39c1-.21,1.87-.4,2.59-.57s1.49-.38,2.33-.62a4.23,4.23,0,0,0-.63-2.32,2.88,2.88,0,0,0-2.34-.74,4.89,4.89,0,0,0-2.29.42A3.74,3.74,0,0,0,353.65,88c-.37.56-.63.94-.78,1.12a1.26,1.26,0,0,1-1,.27,1.71,1.71,0,0,1-1.17-.43,1.44,1.44,0,0,1-.49-1.11,3.39,3.39,0,0,1,.75-2.05,5.36,5.36,0,0,1,2.33-1.64,10.48,10.48,0,0,1,3.94-.64,11.09,11.09,0,0,1,4.15.62,3.86,3.86,0,0,1,2.13,2,8.7,8.7,0,0,1,.62,3.57c0,.94,0,1.74,0,2.39s0,1.38,0,2.18a7.93,7.93,0,0,0,.37,2.35,7.54,7.54,0,0,1,.38,1.58,1.5,1.5,0,0,1-.58,1.12,1.93,1.93,0,0,1-1.31.51,1.8,1.8,0,0,1-1.22-.58A8.88,8.88,0,0,1,360.5,97.57Zm-.27-5.79a17.56,17.56,0,0,1-2.55.68c-1.12.24-1.89.42-2.32.53a3.09,3.09,0,0,0-1.23.66,1.66,1.66,0,0,0-.59,1.37,2,2,0,0,0,.69,1.55,2.57,2.57,0,0,0,1.8.63,4.65,4.65,0,0,0,2.19-.52,3.38,3.38,0,0,0,1.47-1.34,6.13,6.13,0,0,0,.54-3Z"/><path class="cls-7" d="M368.22,97.39V80.05a2.69,2.69,0,0,1,.53-1.82,1.82,1.82,0,0,1,1.44-.61,1.88,1.88,0,0,1,1.47.61,2.61,2.61,0,0,1,.56,1.82V97.39a2.61,2.61,0,0,1-.57,1.83,1.91,1.91,0,0,1-1.46.61,1.79,1.79,0,0,1-1.42-.63A2.67,2.67,0,0,1,368.22,97.39Z"/><path class="cls-7" d="M291.06,117.34h-9.8v5.27h9a2.11,2.11,0,0,1,1.48.45,1.51,1.51,0,0,1,.49,1.18,1.57,1.57,0,0,1-.48,1.19,2.08,2.08,0,0,1-1.49.46h-9V132H291.4a2.23,2.23,0,0,1,1.55.48,1.66,1.66,0,0,1,.52,1.27A1.61,1.61,0,0,1,293,135a2.23,2.23,0,0,1-1.55.48H279.58a2.77,2.77,0,0,1-2-.63,2.8,2.8,0,0,1-.63-2V116.65a3.73,3.73,0,0,1,.28-1.53,1.73,1.73,0,0,1,.87-.86,3.68,3.68,0,0,1,1.52-.28h11.48a2.23,2.23,0,0,1,1.55.47,1.53,1.53,0,0,1,.5,1.2,1.58,1.58,0,0,1-.5,1.23A2.23,2.23,0,0,1,291.06,117.34Z"/><path class="cls-7" d="M307.6,133.54v-.4a10.47,10.47,0,0,1-1.59,1.51,6.11,6.11,0,0,1-1.7.88,6.66,6.66,0,0,1-2,.3,6,6,0,0,1-2.66-.61,6.27,6.27,0,0,1-2.11-1.74,7.82,7.82,0,0,1-1.36-2.65,11.59,11.59,0,0,1-.46-3.3,8.59,8.59,0,0,1,1.83-5.84,6.09,6.09,0,0,1,4.82-2.1,6.44,6.44,0,0,1,2.92.6A8,8,0,0,1,307.6,122v-5.9a3,3,0,0,1,.49-1.86,1.68,1.68,0,0,1,1.4-.63,1.72,1.72,0,0,1,1.4.58,2.54,2.54,0,0,1,.49,1.7v17.64a2.4,2.4,0,0,1-.53,1.71,1.77,1.77,0,0,1-1.36.58,1.71,1.71,0,0,1-1.35-.6A2.42,2.42,0,0,1,307.6,133.54Zm-7.86-5.87a6.74,6.74,0,0,0,.5,2.76,3.87,3.87,0,0,0,1.39,1.73,3.42,3.42,0,0,0,1.91.57,3.58,3.58,0,0,0,1.93-.54,3.76,3.76,0,0,0,1.39-1.69,6.75,6.75,0,0,0,.52-2.83,6.58,6.58,0,0,0-.52-2.75,4.09,4.09,0,0,0-1.4-1.76,3.43,3.43,0,0,0-1.95-.61,3.25,3.25,0,0,0-2,.63,4,4,0,0,0-1.34,1.78A7.09,7.09,0,0,0,299.74,127.67Z"/><path class="cls-7" d="M317.42,117.71a2.11,2.11,0,0,1-1.43-.52,1.79,1.79,0,0,1-.6-1.45,1.84,1.84,0,0,1,.61-1.4,2.12,2.12,0,0,1,2.79,0,1.78,1.78,0,0,1,.6,1.45,1.84,1.84,0,0,1-.58,1.45A2.07,2.07,0,0,1,317.42,117.71Zm2,4.13v11.55a2.6,2.6,0,0,1-.57,1.82,1.89,1.89,0,0,1-1.45.62,1.82,1.82,0,0,1-1.43-.63,2.72,2.72,0,0,1-.55-1.81V122a2.58,2.58,0,0,1,.55-1.78,1.86,1.86,0,0,1,1.43-.6,1.91,1.91,0,0,1,1.45.6A2.32,2.32,0,0,1,319.39,121.84Z"/><path class="cls-7" d="M323.74,119.92h.44v-2.41c0-.64,0-1.14.05-1.51a2.31,2.31,0,0,1,.29-1,1.84,1.84,0,0,1,.67-.66,2,2,0,0,1,1-.26,2,2,0,0,1,1.37.57,1.67,1.67,0,0,1,.52.93,7.94,7.94,0,0,1,.11,1.56v2.73h1.47a1.85,1.85,0,0,1,1.29.4,1.32,1.32,0,0,1,.45,1,1.15,1.15,0,0,1-.64,1.13,4,4,0,0,1-1.82.32h-.75v7.36a10.69,10.69,0,0,0,.07,1.44,1.43,1.43,0,0,0,.35.82,1.2,1.2,0,0,0,.93.31,5.17,5.17,0,0,0,1-.12,5.19,5.19,0,0,1,.94-.12,1.23,1.23,0,0,1,.87.38,1.3,1.3,0,0,1,.39,1,1.6,1.6,0,0,1-1.05,1.48,7.2,7.2,0,0,1-3,.52,5.24,5.24,0,0,1-2.84-.63,3,3,0,0,1-1.27-1.75,11.79,11.79,0,0,1-.3-3V122.8h-.52a1.87,1.87,0,0,1-1.32-.41,1.35,1.35,0,0,1-.46-1,1.28,1.28,0,0,1,.48-1A2.08,2.08,0,0,1,323.74,119.92Z"/><path class="cls-7" d="M349.12,127.7a9.43,9.43,0,0,1-.56,3.29,7.13,7.13,0,0,1-4.13,4.26,9.06,9.06,0,0,1-3.3.58,8.61,8.61,0,0,1-3.26-.59,7.2,7.2,0,0,1-4.13-4.26,10.12,10.12,0,0,1,0-6.61,7,7,0,0,1,4.12-4.23,9.64,9.64,0,0,1,6.56,0,7.12,7.12,0,0,1,4.14,4.25A9.64,9.64,0,0,1,349.12,127.7Zm-4,0a6,6,0,0,0-1.08-3.81,3.48,3.48,0,0,0-2.89-1.37,3.6,3.6,0,0,0-2.06.61,3.86,3.86,0,0,0-1.38,1.8,7.33,7.33,0,0,0-.48,2.77,7.16,7.16,0,0,0,.47,2.73,3.94,3.94,0,0,0,1.36,1.8,3.6,3.6,0,0,0,2.09.62,3.46,3.46,0,0,0,2.89-1.37A5.94,5.94,0,0,0,345.1,127.7Z"/><path class="cls-7" d="M356.23,130.05v3.34a2.61,2.61,0,0,1-.57,1.83,1.92,1.92,0,0,1-1.45.61,1.84,1.84,0,0,1-1.42-.62,2.64,2.64,0,0,1-.55-1.82V122.26c0-1.8.64-2.69,1.94-2.69a1.62,1.62,0,0,1,1.44.63,3.51,3.51,0,0,1,.48,1.86,7.09,7.09,0,0,1,1.47-1.86,3.07,3.07,0,0,1,2-.63,5.2,5.2,0,0,1,2.45.63,1.87,1.87,0,0,1,1.18,1.67,1.59,1.59,0,0,1-.5,1.2,1.57,1.57,0,0,1-1.09.48,5,5,0,0,1-1.07-.27,4.9,4.9,0,0,0-1.48-.27,2.16,2.16,0,0,0-1.44.46,2.91,2.91,0,0,0-.86,1.37,9.26,9.26,0,0,0-.43,2.16C356.27,127.83,356.23,128.85,356.23,130.05Z"/><text class="cls-8"><tspan x="62.2" y="284.46">Pu</tspan><tspan class="cls-6" x="100.33" y="284.46">b</tspan><tspan x="118.68" y="284.46">lishing</tspan><tspan x="82.49" y="320.46">A</tspan><tspan class="cls-6" x="104.06" y="320.46">d</tspan><tspan x="122.42" y="320.46">viser</tspan></text><text class="cls-5"><tspan x="257.89" y="284.46">Man</tspan><tspan class="cls-6" x="318.83" y="284.46">a</tspan><tspan x="336.26" y="284.46">ging </tspan><tspan x="284.57" y="320.46">Editor</tspan></text></g></g></svg>