<svg xmlns="http://www.w3.org/2000/svg" viewBox="0 0 92.48 81.48"><defs><style>.cls-1{fill:#a0b7bb;}.cls-2{fill:#2b4e99;}</style></defs><g id="Layer_2" data-name="Layer 2"><g id="Layer_1-2" data-name="Layer 1"><path class="cls-1" d="M.15,23C14.26,38.23,32,69.8,46.11,81.32"/><path class="cls-1" d="M.29,22.85A159.42,159.42,0,0,1,12.55,36.94c3.82,4.9,7.53,9.88,11.27,14.82,1.88,2.46,3.77,4.92,5.71,7.32l2.84,3.65,2.74,3.71c3.6,5,7.14,9.91,11.13,14.73l-.25.31a40.55,40.55,0,0,1-7.55-5.72c-1.18-1.06-2.27-2.2-3.35-3.34S33,70.1,32,68.91c-4.1-4.76-7.31-10.14-10.75-15.3s-6.8-10.38-10.28-15.5-7-10.2-10.93-15Z"/><path class="cls-1" d="M92.34,22.85C78.23,38.1,60.5,69.66,46.37,81.19"/><path class="cls-1" d="M92.48,23C88.55,27.77,85,32.83,81.55,38S74.7,48.29,71.28,53.47,64.62,64,60.53,68.77c-1,1.19-2.05,2.37-3.14,3.52s-2.17,2.27-3.34,3.33a40.77,40.77,0,0,1-7.55,5.72L46.24,81c4-4.81,7.53-9.74,11.14-14.73l2.74-3.71L63,58.94c1.94-2.4,3.83-4.85,5.71-7.31,3.75-4.94,7.45-9.93,11.28-14.83A160.84,160.84,0,0,1,92.19,22.72Z"/><path class="cls-2" d="M.15,12.72C14.26,28,32,59.53,46.11,71.06"/><path class="cls-2" d="M.26,12.62a163.46,163.46,0,0,1,12.08,14.2c3.79,4.93,7.45,9.94,11.15,14.91S31.1,51.5,34.71,56.48a184.52,184.52,0,0,0,11.5,14.46l-.19.24a45.27,45.27,0,0,1-7.32-5.92c-1.14-1.08-2.22-2.23-3.27-3.39s-2.08-2.34-3.08-3.54c-4-4.79-7.33-10.08-10.82-15.22S14.66,32.79,11.13,27.7A182.33,182.33,0,0,0,0,12.82Z"/><path class="cls-2" d="M92.34,12.59C78.23,27.83,60.5,59.4,46.37,70.92"/><path class="cls-2" d="M92.45,12.69a182.88,182.88,0,0,0-11.1,14.87C77.83,32.65,74.41,37.83,71,43S64.16,53.41,60.13,58.2c-1,1.2-2,2.38-3.08,3.54s-2.12,2.3-3.27,3.38A44.42,44.42,0,0,1,46.46,71l-.19-.23a184.19,184.19,0,0,0,11.5-14.47c3.62-5,7.53-9.77,11.22-14.75s7.37-10,11.15-14.91a163.57,163.57,0,0,1,12.09-14.2Z"/><line class="cls-1" x1="75.51" y1="5.43" x2="70.17" y2="25.46"/><path class="cls-1" d="M75.51,5.43a14.13,14.13,0,0,1,1.31,5.71,17.57,17.57,0,0,1-.6,5.2,17.71,17.71,0,0,1-2.06,4.82,14.29,14.29,0,0,1-4,4.3,14.26,14.26,0,0,1-1.33-5.72,17.58,17.58,0,0,1,.62-5.2,17.83,17.83,0,0,1,2.06-4.81A14.3,14.3,0,0,1,75.51,5.43Z"/><line class="cls-1" x1="67.62" y1="34.98" x2="78.9" y2="25.49"/><path class="cls-1" d="M67.62,35a13.53,13.53,0,0,1,2.06-3.28,22.27,22.27,0,0,1,2.61-2.62,20.8,20.8,0,0,1,3-2.12,13.47,13.47,0,0,1,3.58-1.47,13.28,13.28,0,0,1-2.06,3.27,21.19,21.19,0,0,1-5.65,4.74A13.41,13.41,0,0,1,67.62,35Z"/><path class="cls-1" d="M.15.07C14.26,15.31,32,46.88,46.11,58.4"/><path class="cls-1" d="M.22,0A171.48,171.48,0,0,1,12.14,14.31c3.74,5,7.36,10,11,15s7.45,9.9,11.15,14.83a137.26,137.26,0,0,0,11.86,14.2l-.13.15c-.63-.46-1.25-.92-1.87-1.4s-1.24-1-1.82-1.49C41.21,54.54,40,53.49,39,52.36s-2.18-2.25-3.2-3.42-2.05-2.36-3-3.57c-3.95-4.83-7.39-10-10.89-15.14S14.9,20,11.33,14.9A171.58,171.58,0,0,0,.07.14Z"/><path class="cls-1" d="M78.55,17.44C68.67,28.11,56.26,50.2,46.37,58.27"/><path class="cls-1" d="M78.62,17.5a117.87,117.87,0,0,0-7.78,10.41c-2.48,3.55-4.87,7.17-7.3,10.78A128.52,128.52,0,0,1,56,49.33c-.69.84-1.4,1.67-2.15,2.48s-1.48,1.61-2.28,2.37a31.91,31.91,0,0,1-5.1,4.17l-.12-.16a123.64,123.64,0,0,0,8.08-10.1c2.54-3.48,5.27-6.84,7.85-10.33s5.14-7,7.79-10.44a119.54,119.54,0,0,1,8.44-9.95Z"/></g></g></svg>